<?xml version="1.0" encoding="iso-8859-1"?>
<!-- Uploaded to: SVG Repo, www.svgrepo.com, Transformed by: SVG Repo Mixer Tools -->
<!DOCTYPE svg PUBLIC "-//W3C//DTD SVG 1.1//EN" "http://www.w3.org/Graphics/SVG/1.1/DTD/svg11.dtd">
<svg fill="#000000" version="1.1" id="Capa_1" xmlns="http://www.w3.org/2000/svg" xmlns:xlink="http://www.w3.org/1999/xlink" 
	 width="800px" height="800px" viewBox="0 0 190.742 190.742"
	 xml:space="preserve">
<g>
	<path d="M46.661,69.946c0-1.72,1.397-3.118,3.118-3.118h74.303c1.723,0,3.117,1.397,3.117,3.118c0,1.723-1.395,3.118-3.117,3.118
		H49.779C48.059,73.063,46.661,71.675,46.661,69.946z M49.779,100.087h74.303c1.723,0,3.117-1.4,3.117-3.117
		c0-1.711-1.395-3.118-3.117-3.118H49.779c-1.72,0-3.118,1.395-3.118,3.118S48.059,100.087,49.779,100.087z M81.908,120.863H49.785
		c-1.72,0-3.118,1.406-3.118,3.117c0,1.73,1.397,3.118,3.118,3.118h32.123c1.724,0,3.118-1.388,3.118-3.118
		C85.026,122.258,83.632,120.863,81.908,120.863z M77.75,147.887H49.785c-1.72,0-3.118,1.395-3.118,3.118
		c0,1.717,1.397,3.117,3.118,3.117H77.75c1.723,0,3.118-1.4,3.118-3.117C80.867,149.281,79.473,147.887,77.75,147.887z
		 M165.816,151.516c0,21.635-17.585,39.227-39.226,39.227c-10.114,0-19.309-3.872-26.275-10.181c-0.006,0-0.018,0.013-0.03,0.013
		H28.043c-1.723,0-3.118-1.407-3.118-3.118V31.624c0-1.721,1.395-3.118,3.118-3.118h26.33v-8.567c0-1.72,1.397-3.117,3.118-3.117
		h12.778c0-0.049,0-0.106,0-0.155C70.269,7.474,77.75,0,86.941,0c9.192,0,16.669,7.474,16.669,16.666c0,0.049,0,0.106,0,0.155
		h12.774c1.718,0,3.118,1.397,3.118,3.117v8.567h26.323c1.724,0,3.117,1.397,3.117,3.118v87.692
		C159.131,126.41,165.816,138.193,165.816,151.516z M60.608,38.328h52.653V23.062h-13.22c-0.953,0-1.869-0.441-2.463-1.203
		s-0.798-1.75-0.561-2.679c0.243-0.956,0.354-1.748,0.354-2.509c0-5.754-4.683-10.431-10.437-10.431s-10.437,4.677-10.437,10.431
		c0,0.761,0.113,1.583,0.347,2.521c0.231,0.928,0.021,1.918-0.566,2.673c-0.584,0.755-1.495,1.196-2.457,1.196H60.608V38.328z
		 M31.161,174.326h63.58c-4.625-6.43-7.383-14.297-7.383-22.811c0-21.628,17.598-39.238,39.226-39.238
		c5.742,0,11.187,1.279,16.112,3.502V34.735H119.49v6.698c0,1.72-1.4,3.117-3.117,3.117H57.485c-1.72,0-3.118-1.397-3.118-3.117
		v-6.698H31.155L31.161,174.326L31.161,174.326z M159.582,151.516c0-18.193-14.803-33.003-32.991-33.003S93.6,133.322,93.6,151.516
		c0,18.195,14.803,32.992,32.991,32.992S159.582,169.711,159.582,151.516z M143.786,138.521l-19.096,18.311l-12.921-10.327
		c-1.346-1.071-3.301-0.853-4.384,0.487c-1.072,1.352-0.853,3.3,0.486,4.384l15.053,12.044c0.572,0.451,1.261,0.67,1.948,0.67
		c0.779,0,1.56-0.292,2.156-0.87l21.062-20.198c1.235-1.181,1.284-3.172,0.091-4.408
		C146.989,137.359,145.022,137.334,143.786,138.521z"/>
</g>
</svg>